<?xml version="1.0" standalone="no"?><!DOCTYPE svg PUBLIC "-//W3C//DTD SVG 1.1//EN" "http://www.w3.org/Graphics/SVG/1.1/DTD/svg11.dtd"><svg t="1756178175146" class="icon" viewBox="0 0 1024 1024" version="1.1" xmlns="http://www.w3.org/2000/svg" p-id="6723" xmlns:xlink="http://www.w3.org/1999/xlink" ><path d="M0 0h1024v1024H0z" fill-opacity="0" p-id="6724"></path><path d="M394.971429 314.514286c0-73.142857-65.828571-138.971429-138.971429-138.971429-80.457143 0-138.971429 58.514286-138.971429 138.971429 0 36.571429 14.628571 73.142857 36.571429 95.085714C146.285714 438.857143 146.285714 468.114286 146.285714 497.371429c0 131.657143 73.142857 241.371429 175.542857 307.2l29.257143-109.714286C292.571429 643.657143 256 570.514286 256 497.371429v-43.885715c80.457143 0 138.971429-65.828571 138.971429-138.971428z m124.342857-73.142857c51.2 0 95.085714 14.628571 131.657143 36.571428 0 14.628571-7.314286 29.257143-7.314286 43.885714 0 73.142857 65.828571 138.971429 138.971428 138.971429s138.971429-58.514286 138.971429-138.971429-65.828571-138.971429-138.971429-138.971428c-21.942857 0-36.571429 0-51.2 7.314286-58.514286-36.571429-131.657143-58.514286-212.114285-58.514286-51.2 0-102.4 14.628571-153.6 29.257143l65.828571 87.771428c29.257143-7.314286 58.514286-7.314286 87.771429-7.314285z m263.314285 263.314285c-7.314286 95.085714-58.514286 175.542857-138.971428 212.114286-21.942857-43.885714-73.142857-73.142857-124.342857-73.142857-80.457143 0-138.971429 58.514286-138.971429 138.971428s65.828571 138.971429 138.971429 138.971429c58.514286 0 109.714286-36.571429 131.657143-80.457143 146.285714-51.2 248.685714-182.857143 248.685714-343.771428v-21.942858l-117.028572 29.257143zM394.971429 314.514286c0-73.142857-65.828571-138.971429-138.971429-138.971429-80.457143 0-138.971429 58.514286-138.971429 138.971429 0 36.571429 14.628571 73.142857 36.571429 95.085714C146.285714 438.857143 146.285714 468.114286 146.285714 497.371429c0 131.657143 73.142857 241.371429 175.542857 307.2l29.257143-109.714286C292.571429 643.657143 256 570.514286 256 497.371429v-43.885715c80.457143 0 138.971429-65.828571 138.971429-138.971428z m124.342857-73.142857c51.2 0 95.085714 14.628571 131.657143 36.571428 0 14.628571-7.314286 29.257143-7.314286 43.885714 0 73.142857 65.828571 138.971429 138.971428 138.971429s138.971429-58.514286 138.971429-138.971429-65.828571-138.971429-138.971429-138.971428c-21.942857 0-36.571429 0-51.2 7.314286-58.514286-36.571429-131.657143-58.514286-212.114285-58.514286-51.2 0-102.4 14.628571-153.6 29.257143l65.828571 87.771428c29.257143-7.314286 58.514286-7.314286 87.771429-7.314285z m263.314285 263.314285c-7.314286 95.085714-58.514286 175.542857-138.971428 212.114286-21.942857-43.885714-73.142857-73.142857-124.342857-73.142857-80.457143 0-138.971429 58.514286-138.971429 138.971428s65.828571 138.971429 138.971429 138.971429c58.514286 0 109.714286-36.571429 131.657143-80.457143 146.285714-51.2 248.685714-182.857143 248.685714-343.771428v-21.942858l-117.028572 29.257143zM394.971429 314.514286c0-73.142857-65.828571-138.971429-138.971429-138.971429-80.457143 0-138.971429 58.514286-138.971429 138.971429 0 36.571429 14.628571 73.142857 36.571429 95.085714C146.285714 438.857143 146.285714 468.114286 146.285714 497.371429c0 131.657143 73.142857 241.371429 175.542857 307.2l29.257143-109.714286C292.571429 643.657143 256 570.514286 256 497.371429v-43.885715c80.457143 0 138.971429-65.828571 138.971429-138.971428z m124.342857-73.142857c51.2 0 95.085714 14.628571 131.657143 36.571428 0 14.628571-7.314286 29.257143-7.314286 43.885714 0 73.142857 65.828571 138.971429 138.971428 138.971429s138.971429-58.514286 138.971429-138.971429-65.828571-138.971429-138.971429-138.971428c-21.942857 0-36.571429 0-51.2 7.314286-58.514286-36.571429-131.657143-58.514286-212.114285-58.514286-51.2 0-102.4 14.628571-153.6 29.257143l65.828571 87.771428c29.257143-7.314286 58.514286-7.314286 87.771429-7.314285z m263.314285 263.314285c-7.314286 95.085714-58.514286 175.542857-138.971428 212.114286-21.942857-43.885714-73.142857-73.142857-124.342857-73.142857-80.457143 0-138.971429 58.514286-138.971429 138.971428s65.828571 138.971429 138.971429 138.971429c58.514286 0 109.714286-36.571429 131.657143-80.457143 146.285714-51.2 248.685714-182.857143 248.685714-343.771428v-21.942858l-117.028572 29.257143z" p-id="6725"></path></svg>