<?xml version="1.0" standalone="no"?><!DOCTYPE svg PUBLIC "-//W3C//DTD SVG 1.1//EN" "http://www.w3.org/Graphics/SVG/1.1/DTD/svg11.dtd"><svg t="1771472845482" class="icon" viewBox="0 0 1024 1024" version="1.1" xmlns="http://www.w3.org/2000/svg" p-id="10674" xmlns:xlink="http://www.w3.org/1999/xlink" width="200" height="200"><path d="M749.312 506.496A242.784 242.784 0 1 0 749.216 992a242.784 242.784 0 0 0 0.096-485.536z m-35.104 372h-56.448V671.36h-18.784v-18.88h75.232v108.896l93.056-108.896 94.144 0.224-187.2 225.792z m-255.616-343.04a257.28 257.28 0 0 0 131.68-35.904l7.392-4.48c70.304-44.8 116.8-122.624 116.8-211.328C714.432 144.64 599.872 32 458.56 32 317.312 32 202.656 144.64 202.656 283.744c0 139.072 114.4 251.712 255.936 251.712z" p-id="10675"></path><path d="M476.672 864.448a295.84 295.84 0 0 1 35.2-291.872h-149.28C180.096 572.576 32 718.176 32 897.664v20.864C32 992 180.096 992 362.592 992h217.248a308.736 308.736 0 0 1-39.808-33.312 290.56 290.56 0 0 1-63.36-94.24z" p-id="10676"></path></svg>